<?xml version="1.0" standalone="no"?>
<!DOCTYPE svg PUBLIC "-//W3C//DTD SVG 20010904//EN"
 "http://www.w3.org/TR/2001/REC-SVG-20010904/DTD/svg10.dtd">
<svg version="1.0" xmlns="http://www.w3.org/2000/svg"
 width="1024.000000pt" height="1024.000000pt" viewBox="0 0 1024.000000 1024.000000"
 preserveAspectRatio="xMidYMid meet">
<metadata>
Created by potrace 1.14, written by Peter Selinger 2001-2017
</metadata>
<g transform="translate(0.000000,1024.000000) scale(0.100000,-0.100000)"
fill="#000000" stroke="none">
<path d="M0 5120 l0 -5120 5120 0 5120 0 0 5120 0 5120 -5120 0 -5120 0 0
-5120z m5505 3560 c323 -39 624 -118 901 -236 756 -321 1354 -877 1715 -1595
35 -68 91 -189 125 -269 34 -79 74 -158 87 -176 17 -21 55 -43 114 -69 48 -20
97 -45 107 -54 27 -23 166 -210 166 -222 0 -6 14 -31 30 -56 17 -25 29 -47 27
-49 -2 -2 -19 1 -38 6 -19 6 -57 9 -84 9 -34 -1 -64 5 -92 20 -23 11 -51 21
-61 21 -13 0 -26 16 -42 50 -28 60 -46 77 -125 119 -113 61 -267 156 -306 189
-21 19 -45 32 -51 30 -18 -6 89 -116 202 -208 213 -173 309 -276 322 -345 2
-16 -7 -20 -62 -31 -119 -23 -130 -21 -264 56 -118 68 -206 100 -273 100 -24
0 -37 7 -49 25 -11 17 -25 25 -45 25 -35 0 -34 -2 -46 120 -9 86 -16 106 -66
210 -31 63 -79 156 -106 205 -28 50 -67 132 -88 183 -23 57 -53 109 -76 135
-23 25 -36 34 -32 22 4 -11 13 -54 21 -95 26 -136 81 -261 174 -400 31 -47 66
-103 77 -125 27 -53 87 -235 80 -242 -3 -3 -29 -2 -57 2 -49 7 -53 10 -71 49
-10 22 -19 49 -19 58 0 10 -10 22 -21 29 -47 25 -167 60 -246 71 -97 14 -92 3
-67 156 22 131 14 371 -16 492 -23 96 -39 140 -50 140 -4 0 -11 -69 -15 -152
-4 -84 -13 -186 -21 -226 -15 -81 -86 -250 -137 -324 -30 -45 -35 -48 -77 -49
l-45 -1 40 -10 c22 -5 76 -13 120 -17 44 -4 71 -9 60 -10 l-20 -2 20 -9 c19
-8 19 -9 -2 -9 -13 -1 -23 -5 -23 -11 0 -5 -11 -10 -24 -10 -14 0 -27 -4 -31
-10 -3 -5 -11 -7 -18 -4 -18 7 -201 -42 -205 -55 -2 -6 -8 -9 -13 -5 -5 3 -9
0 -9 -5 0 -6 -3 -10 -7 -9 -15 4 -53 -14 -53 -24 0 -6 -3 -8 -6 -5 -4 4 -19
-2 -34 -13 -16 -11 -33 -20 -39 -20 -6 0 -11 -5 -11 -11 0 -11 -52 -77 -102
-132 -26 -27 -32 -40 -29 -60 1 -5 -3 -6 -9 -2 -5 3 -10 -3 -10 -13 0 -11 -7
-22 -15 -26 -9 -3 -15 0 -15 9 0 8 -4 15 -10 15 -14 0 -13 -7 8 -37 9 -15 12
-24 6 -20 -11 7 -42 -49 -36 -66 1 -4 -5 -15 -13 -23 -8 -9 -13 -20 -10 -25 4
-5 2 -9 -2 -9 -10 0 -33 -58 -37 -93 -1 -12 -8 -33 -15 -45 -7 -13 -10 -36 -7
-50 5 -20 4 -23 -3 -12 -13 18 -14 -10 -14 -239 0 -97 4 -166 10 -170 6 -3 10
-13 11 -21 0 -8 2 -30 3 -47 1 -18 6 -33 10 -33 5 0 12 -18 15 -40 4 -22 10
-43 15 -46 4 -2 5 -12 2 -21 -4 -11 -3 -14 5 -9 7 4 12 0 13 -11 3 -38 19 -84
29 -78 4 2 12 -7 19 -21 7 -17 8 -23 0 -19 -6 4 -5 -2 3 -14 7 -12 16 -21 20
-21 5 0 8 -7 8 -15 0 -19 45 -84 76 -112 14 -12 26 -25 26 -30 0 -4 17 -25 37
-46 105 -109 162 -162 224 -203 82 -55 212 -117 249 -118 16 -1 28 -4 28 -7 0
-7 53 -22 135 -38 101 -21 374 -5 455 27 8 3 18 6 22 6 3 1 9 4 13 8 4 4 13 4
21 1 8 -3 14 0 14 7 0 6 4 9 9 5 12 -7 101 35 101 48 0 4 4 6 8 3 13 -8 167
99 164 113 -1 7 2 10 7 7 5 -3 24 11 42 32 18 20 39 36 47 34 8 -2 11 1 8 6
-7 11 79 26 95 17 14 -9 79 3 79 15 0 20 -98 29 -185 15 -23 -3 -21 -1 10 10
22 7 52 14 66 14 15 1 29 7 32 14 4 11 -6 12 -50 5 -31 -5 -57 -7 -60 -5 -7 8
115 29 126 23 6 -4 16 -4 21 -1 19 12 -10 35 -44 36 -20 1 -24 3 -11 6 11 2
27 7 35 10 22 9 21 9 73 17 67 12 47 24 -51 32 -45 4 -81 9 -78 11 2 2 53 4
114 4 60 0 135 4 167 9 50 8 140 10 400 9 83 0 121 3 130 13 9 8 -22 29 -47
32 -13 2 -39 8 -58 14 -19 6 -46 13 -60 16 -14 3 2 3 35 0 33 -3 67 -5 75 -5
44 2 69 7 76 14 4 4 14 7 23 7 21 0 121 51 121 62 0 12 -23 10 -63 -7 -20 -8
-42 -15 -49 -14 -7 0 5 8 27 17 22 9 46 21 53 25 19 13 14 27 -10 27 -16 0
-19 3 -11 11 6 6 9 17 7 24 -3 7 6 15 24 18 41 8 73 60 60 98 -16 47 -40 59
-119 61 -30 1 -35 5 -31 20 3 13 -1 18 -14 18 -11 0 -34 9 -53 21 -18 11 -53
21 -76 22 -24 1 -41 5 -38 10 2 4 -11 8 -29 8 -55 2 -78 6 -86 14 -4 4 22 4
58 1 191 -17 215 -18 234 -4 18 14 18 16 1 49 -10 19 -33 47 -52 63 -19 16
-32 34 -29 42 3 7 0 16 -6 20 -7 5 -8 2 -3 -6 5 -9 4 -11 -4 -6 -6 4 -9 11 -6
16 3 4 -2 11 -11 14 -10 4 -13 13 -9 27 5 13 3 19 -3 15 -5 -3 -13 2 -17 11
-3 10 -1 19 4 21 6 2 11 13 11 24 0 13 5 18 14 15 8 -3 20 1 26 9 16 18 30 18
30 -1 0 -8 7 -15 15 -15 9 0 18 -7 21 -15 4 -8 10 -15 16 -15 5 0 6 6 3 13 -4
6 2 1 13 -13 11 -13 19 -27 16 -31 -2 -4 4 -6 14 -5 9 0 16 -5 15 -11 -2 -7 2
-13 7 -13 6 0 10 -6 10 -13 0 -7 7 -22 16 -33 13 -16 15 -16 10 -2 -10 33 11
27 24 -7 8 -19 17 -35 22 -35 4 0 8 -7 8 -16 0 -8 4 -12 10 -9 6 3 7 -1 4 -9
-3 -9 -10 -16 -16 -16 -5 0 -6 -5 -3 -11 5 -6 12 -4 21 8 13 16 13 15 4 -10
-12 -35 -12 -37 -1 -37 5 0 12 10 14 23 4 19 4 18 6 -5 0 -16 6 -28 11 -28 6
0 10 -9 10 -21 0 -11 4 -18 9 -15 11 7 23 -22 15 -35 -3 -5 0 -9 7 -9 9 0 9
-3 0 -14 -9 -10 -8 -15 1 -19 17 -6 15 -141 -2 -203 -7 -24 -10 -50 -7 -59 4
-8 2 -15 -3 -15 -9 0 -26 -39 -22 -53 1 -5 -2 -6 -8 -2 -5 3 -10 -2 -10 -13 0
-10 -7 -19 -15 -19 -8 0 -15 6 -15 14 0 7 -4 13 -10 13 -13 0 -13 -6 2 -29 9
-16 6 -23 -23 -49 -36 -33 -51 -40 -46 -21 1 6 -4 14 -10 16 -7 3 -13 -2 -13
-11 0 -9 5 -16 10 -16 6 0 10 -4 10 -8 0 -8 -99 -62 -125 -69 -37 -9 -187 -36
-218 -39 -43 -3 -60 -11 -51 -25 3 -5 10 -7 15 -4 5 4 9 1 9 -5 0 -6 5 -8 10
-5 6 3 10 2 10 -3 0 -5 23 -23 50 -41 28 -18 50 -37 50 -43 0 -6 -8 -4 -18 5
-10 10 -25 17 -33 17 -10 -1 -9 -5 5 -15 18 -14 18 -15 1 -21 -9 -4 -30 -7
-46 -8 -16 -1 -29 -4 -29 -7 0 -4 -18 -9 -40 -13 -22 -3 -40 -11 -40 -17 0 -5
-4 -8 -9 -5 -11 7 -91 -34 -91 -46 0 -5 -3 -7 -8 -4 -14 8 -128 -118 -139
-154 -10 -32 -12 -33 -18 -12 -4 12 -11 22 -16 22 -13 0 -11 -7 9 -37 9 -15
11 -24 5 -20 -12 8 -17 -5 -16 -40 1 -7 -3 -11 -7 -8 -10 6 -30 -42 -33 -82
-1 -17 -5 -29 -9 -26 -5 2 -8 -4 -8 -14 0 -11 -5 -24 -11 -30 -6 -6 -12 -29
-12 -52 -1 -25 -6 -42 -15 -46 -10 -3 -12 -13 -8 -31 5 -17 3 -23 -4 -19 -9 6
-14 -10 -13 -42 1 -7 -3 -10 -8 -7 -8 5 -13 -12 -12 -43 1 -7 -3 -10 -8 -7 -5
3 -9 -3 -9 -13 0 -10 -7 -31 -15 -47 -8 -15 -13 -32 -10 -36 3 -4 -2 -11 -11
-14 -9 -3 -14 -12 -12 -18 3 -7 -4 -22 -14 -33 -11 -11 -17 -28 -14 -37 2 -10
0 -18 -6 -18 -5 0 -6 -4 -3 -10 3 -5 1 -10 -5 -10 -6 0 -9 -4 -6 -9 3 -5 -1
-12 -10 -15 -9 -4 -14 -13 -10 -21 3 -8 1 -15 -4 -15 -6 0 -9 -3 -9 -7 3 -20
-2 -34 -11 -28 -5 3 -12 -5 -16 -19 -7 -29 -34 -57 -34 -36 0 8 -3 11 -6 8 -3
-4 -1 -15 5 -26 8 -16 7 -21 -5 -26 -9 -4 -14 -13 -10 -21 3 -9 -1 -15 -10
-15 -11 0 -14 -6 -10 -16 4 -10 2 -13 -6 -8 -8 5 -9 1 -4 -12 4 -10 4 -15 0
-11 -10 10 -36 -31 -28 -45 4 -7 3 -8 -4 -4 -8 5 -12 0 -12 -12 0 -11 -7 -23
-16 -26 -9 -4 -14 -9 -11 -12 6 -6 -6 -24 -35 -52 -10 -9 -18 -24 -18 -34 0
-23 -30 -24 -31 0 0 9 -3 12 -5 5 -3 -7 0 -22 6 -34 8 -15 9 -19 1 -15 -10 7
-16 -7 -11 -29 1 -5 -2 -7 -6 -3 -8 9 -34 -10 -34 -24 0 -5 6 -6 13 -3 6 4 -1
-5 -18 -19 -16 -14 -26 -26 -20 -26 5 0 -1 -7 -13 -16 -12 -8 -20 -20 -17 -25
4 -5 -1 -12 -9 -15 -9 -3 -16 -13 -16 -21 0 -8 -5 -11 -10 -8 -6 3 -18 -7 -28
-24 -13 -23 -22 -29 -37 -25 -17 5 -18 4 -5 -7 8 -8 13 -13 11 -12 -2 2 -10
-5 -16 -14 -11 -15 -15 -15 -29 -4 -9 8 -16 9 -16 3 0 -6 5 -12 11 -14 6 -2 7
-12 1 -28 -5 -14 -13 -23 -18 -21 -5 2 -14 -6 -20 -18 -6 -11 -13 -19 -16 -16
-3 3 -13 -6 -22 -20 -18 -28 -36 -33 -36 -10 0 8 -4 15 -10 15 -13 0 -13 -13
2 -28 8 -8 -3 -25 -48 -69 -32 -32 -57 -62 -56 -68 2 -5 1 -7 -3 -3 -10 9 -45
-24 -38 -35 3 -6 1 -7 -5 -3 -6 3 -14 2 -17 -4 -4 -6 -16 -8 -28 -5 -15 4 -18
3 -9 -3 10 -7 3 -18 -27 -45 -21 -19 -36 -39 -33 -43 4 -4 2 -4 -5 0 -6 3 -14
2 -18 -4 -9 -15 -25 -12 -25 6 0 8 -5 12 -10 9 -8 -5 -8 -11 -1 -19 17 -20
-41 -70 -71 -61 -14 4 -18 3 -10 -3 10 -6 8 -13 -7 -31 -11 -12 -22 -22 -25
-22 -17 1 -35 -13 -29 -23 3 -6 3 -8 -2 -4 -12 11 -47 -11 -39 -25 4 -7 4 -9
0 -6 -4 4 -35 -10 -69 -32 -127 -79 -223 -133 -341 -191 -67 -33 -122 -64
-124 -69 -2 -4 -9 -6 -17 -3 -7 3 -16 1 -20 -5 -3 -6 -14 -11 -24 -11 -9 0
-23 -6 -30 -12 -6 -7 -15 -13 -19 -13 -19 0 -92 -29 -92 -37 0 -5 -10 -4 -21
3 -12 6 -19 7 -15 1 7 -12 -168 -72 -213 -72 -19 0 -30 -4 -26 -10 3 -6 -4
-10 -17 -10 -13 0 -36 -7 -52 -15 -16 -9 -36 -13 -43 -11 -7 3 -13 2 -13 -2 0
-4 -8 -8 -17 -8 -10 -1 -31 -4 -48 -8 -16 -4 -54 -9 -82 -13 -29 -3 -53 -9
-53 -12 0 -3 -28 -8 -62 -9 -34 -2 -67 -6 -73 -10 -12 -8 -31 -11 -105 -15
-30 -1 -59 -5 -65 -8 -22 -13 -370 -9 -535 6 -96 9 -206 18 -245 21 -38 2
-119 16 -180 29 -60 14 -123 28 -138 31 -123 25 -467 139 -467 156 0 5 -4 6
-10 3 -5 -3 -10 -1 -10 5 0 7 -7 10 -15 6 -8 -3 -15 0 -15 6 0 6 -3 8 -7 5 -3
-4 -29 6 -57 22 -28 15 -54 29 -59 29 -4 1 -49 21 -100 45 -172 81 -393 224
-590 379 -131 103 -407 381 -520 523 -122 153 -289 396 -282 412 2 8 1 11 -4
8 -29 -17 -347 652 -326 686 4 5 1 9 -5 9 -7 0 -10 6 -7 14 3 8 2 16 -2 18
-12 4 -71 200 -64 211 3 5 -1 13 -8 18 -12 7 -12 10 0 21 12 11 12 10 6 -2 -8
-13 -6 -13 7 -2 11 9 17 9 20 2 2 -6 13 -12 25 -13 12 0 20 -4 17 -8 -4 -8 26
-23 39 -20 5 1 6 -3 3 -8 -8 -13 21 -34 35 -25 7 4 9 3 6 -4 -4 -5 24 -33 63
-62 69 -51 89 -71 50 -50 -21 11 -27 1 -10 -16 6 -6 11 -58 11 -117 1 -59 5
-107 10 -107 5 0 6 -14 2 -32 -4 -21 -3 -29 5 -25 6 5 8 0 5 -13 -3 -12 0 -20
6 -20 7 0 10 -3 7 -8 -6 -11 29 -84 37 -75 4 3 7 -1 7 -10 0 -8 23 -44 50 -79
48 -58 51 -66 51 -118 -1 -75 1 -90 11 -84 4 3 8 1 8 -4 0 -18 76 -91 116
-110 31 -16 43 -29 52 -59 6 -21 9 -48 6 -59 -3 -12 -1 -25 5 -28 6 -4 8 2 6
14 -2 13 0 20 7 18 6 -2 12 -11 14 -19 5 -30 24 -69 34 -69 6 0 9 -4 5 -9 -3
-6 3 -18 13 -28 9 -10 24 -27 32 -37 13 -18 13 -19 0 -12 -8 5 -4 -2 10 -15
14 -13 19 -20 10 -15 -8 6 5 -11 30 -37 24 -26 51 -45 58 -42 7 2 11 1 8 -4
-6 -9 103 -87 117 -83 5 1 6 -1 3 -6 -3 -5 12 -24 32 -43 20 -19 62 -64 92
-99 30 -36 60 -69 66 -75 5 -5 23 -28 39 -49 41 -57 83 -94 146 -131 56 -32
154 -71 196 -78 12 -2 26 -6 29 -10 4 -4 16 -7 27 -7 11 0 48 -15 83 -34 34
-19 65 -32 69 -28 4 4 5 0 3 -8 -2 -9 3 -14 12 -12 8 2 12 0 8 -4 -4 -4 6 -23
22 -43 52 -63 55 -67 58 -82 2 -8 11 -21 22 -30 11 -9 17 -19 15 -21 -8 -8 51
-58 76 -64 85 -20 121 -22 157 -9 52 19 156 67 162 75 3 4 12 7 20 7 46 2 80
8 80 15 0 4 9 8 20 8 11 0 20 -4 20 -8 0 -4 12 -9 28 -10 32 -3 125 -32 132
-42 3 -4 14 -9 25 -13 11 -3 58 -20 105 -37 78 -29 142 -48 243 -69 53 -12 54
-17 5 -26 -73 -13 -82 -15 -87 -21 -8 -7 21 -24 31 -18 4 3 8 0 8 -6 0 -6 5
-8 10 -5 6 3 10 1 10 -5 0 -6 5 -8 10 -5 6 3 10 2 10 -3 0 -26 170 -74 235
-66 61 8 180 43 183 54 2 6 8 8 13 4 5 -3 16 2 24 10 9 8 22 13 30 10 8 -4 15
-1 15 6 0 6 5 8 10 5 6 -3 10 -1 10 5 0 6 5 8 10 5 6 -4 23 1 38 11 15 10 30
17 35 16 4 -1 7 3 7 9 0 5 5 7 10 4 6 -3 10 -1 10 5 0 6 5 8 10 5 6 -3 10 -2
10 3 0 6 7 13 16 16 10 4 13 2 8 -7 -4 -6 4 -2 17 9 13 12 30 19 38 16 8 -2
11 0 7 6 -3 5 8 15 24 21 17 5 30 7 30 4 0 -3 7 0 15 7 8 7 15 19 15 26 0 14
-12 12 -65 -11 -16 -8 -43 -16 -60 -20 -20 -4 -10 5 35 29 35 20 68 36 72 36
4 0 8 2 8 4 0 2 3 11 6 20 4 12 0 16 -16 16 -11 0 -19 -4 -16 -9 3 -5 -19 -19
-49 -31 -64 -26 -85 -23 -25 4 24 10 37 22 34 28 -4 6 -3 8 3 5 14 -9 93 65
93 86 0 10 -8 17 -19 17 -11 0 -23 5 -26 10 -4 6 -10 8 -15 5 -5 -3 -10 5 -12
17 -3 20 -9 23 -40 22 -21 -1 -38 0 -38 2 0 2 19 12 43 22 24 11 60 39 80 64
37 45 47 65 25 52 -7 -4 -8 -3 -4 5 4 6 11 9 15 7 4 -3 18 16 30 41 19 38 19
44 5 32 -16 -13 -16 -12 -4 8 8 12 17 20 20 18 3 -2 12 5 19 17 10 16 10 19
-1 12 -7 -4 6 10 30 32 24 21 45 48 46 59 2 12 10 19 19 17 15 -2 54 53 49 70
-2 8 57 31 80 31 10 0 15 3 13 8 -7 10 52 22 66 13 8 -5 9 -3 4 6 -6 10 -4 12
8 7 9 -3 19 -1 23 4 3 6 15 9 25 6 12 -3 17 -1 12 6 -4 6 2 8 15 5 12 -4 25
-2 28 3 3 5 17 9 32 9 15 0 34 5 42 11 11 8 -11 9 -80 5 -101 -5 -100 -3 15
34 22 7 51 17 65 23 14 5 34 11 45 13 11 1 43 8 70 15 30 7 128 12 244 13 146
1 195 4 199 14 2 6 8 10 13 7 12 -8 88 32 122 63 17 16 27 36 27 54 0 20 6 29
23 33 12 3 44 9 70 15 56 12 127 46 127 60 0 6 7 10 16 10 8 0 13 4 10 9 -3 5
4 11 17 15 13 3 41 23 62 45 73 72 80 80 68 92 -7 7 -21 1 -47 -22 l-37 -32
21 36 c12 21 26 37 32 37 5 0 6 5 3 10 -3 6 -2 10 4 10 19 0 4 50 -22 70 -21
17 -27 30 -27 61 0 41 -24 85 -67 124 -23 21 -32 42 -13 30 15 -9 40 14 40 37
0 10 -7 21 -15 24 -8 4 -13 10 -10 14 3 4 -11 11 -30 14 -19 4 -37 11 -40 16
-6 11 66 -8 79 -21 13 -12 73 -12 81 1 7 11 -13 88 -28 107 -6 9 -1 14 17 19
31 7 33 23 6 56 -10 14 -16 29 -12 32 4 4 -1 13 -10 20 -9 7 -24 31 -33 54
-10 23 -30 52 -46 63 -16 11 -29 26 -29 33 0 7 -11 18 -25 24 -14 7 -22 17
-19 25 6 16 -185 108 -272 131 -67 17 -310 19 -332 3 -7 -5 -16 -7 -19 -3 -4
4 -3 10 2 14 6 4 17 15 25 26 14 18 12 18 -26 15 -27 -3 -41 0 -41 8 0 6 5 11
11 10 6 -1 11 5 11 13 0 10 -10 15 -32 15 -17 0 -35 4 -40 8 -4 5 -1 7 7 5 9
-2 14 3 12 12 -2 8 -1 12 3 8 7 -7 55 31 55 44 0 12 -34 9 -49 -5 -11 -9 -12
-9 -7 0 5 9 2 11 -8 7 -9 -3 -16 -10 -16 -15 0 -5 -9 -9 -19 -9 -11 0 -23 -5
-26 -10 -4 -6 -11 -7 -17 -4 -6 4 -5 10 3 15 10 6 11 9 2 9 -7 0 -18 -9 -25
-20 -17 -26 -23 -25 -23 4 0 13 3 22 7 20 3 -2 4 4 1 15 -3 13 -11 17 -25 13
-18 -4 -19 -3 -7 16 7 12 11 24 7 27 -9 9 -88 -6 -82 -16 3 -5 0 -9 -7 -9 -6
0 -20 -10 -30 -22 -15 -16 -19 -17 -19 -6 0 9 7 19 16 22 8 3 12 11 9 16 -4 6
-1 9 7 8 8 -2 12 4 10 15 -3 16 0 16 17 5 15 -9 23 -10 32 -1 8 8 8 13 0 17
-6 4 -11 2 -11 -3 0 -6 -4 -11 -9 -11 -11 0 -9 19 3 39 7 10 5 12 -3 6 -9 -5
-9 -1 1 14 11 18 11 23 -2 31 -9 5 -19 5 -27 -2 -11 -9 -12 -6 -4 14 13 35 2
45 -52 45 -26 0 -43 -3 -38 -6 6 -4 -10 -14 -34 -22 -44 -16 -45 -16 -41 5 2
11 1 15 -1 9 -3 -7 -9 -13 -14 -13 -6 0 -30 -13 -54 -30 -24 -16 -48 -30 -54
-30 -5 0 -13 -9 -16 -20 -3 -11 -11 -20 -17 -20 -5 0 -8 7 -4 15 3 8 1 15 -4
15 -6 0 -10 5 -10 11 0 5 5 7 12 3 6 -4 8 -3 4 4 -3 6 -20 10 -36 10 -16 -1
-35 4 -43 10 -7 6 -24 8 -38 5 -20 -6 -22 -4 -12 9 7 8 10 17 7 20 -3 3 0 9 7
14 8 5 10 3 4 -7 -4 -8 5 0 20 16 14 17 23 24 20 17 -4 -8 9 -3 28 9 19 13 33
28 30 33 -4 5 -1 6 5 2 6 -3 17 0 25 8 8 8 17 12 21 9 3 -4 6 -1 6 5 0 6 10
16 21 23 15 7 19 8 15 0 -4 -6 6 -3 23 6 16 10 27 21 25 25 -3 5 0 9 5 9 6 1
15 2 21 3 5 0 16 10 25 21 9 11 13 13 9 5 -4 -8 12 3 34 24 23 22 39 43 36 48
-3 4 2 11 10 14 9 3 16 17 16 30 0 26 -10 30 -27 13 -8 -8 -13 -8 -18 0 -3 6
1 14 9 17 9 3 13 10 10 15 -3 5 0 9 6 9 6 0 8 5 5 10 -3 6 -3 10 2 10 4 0 9
16 10 34 2 25 -3 39 -17 49 -15 11 -19 21 -14 43 3 16 0 43 -7 59 -7 17 -12
33 -11 38 1 4 -3 7 -8 7 -6 0 -10 5 -10 11 0 13 -41 48 -57 49 -6 0 -14 4 -17
9 -4 5 4 7 15 4 16 -4 20 -2 17 8 -2 7 -20 18 -39 23 -19 5 -36 12 -39 15 -3
3 -18 7 -35 8 -61 4 -96 15 -91 29 3 7 1 16 -4 19 -6 4 -10 2 -10 -3 0 -10
-51 -24 -59 -16 -2 2 2 11 10 21 12 14 12 16 0 8 -11 -6 -13 -4 -8 10 8 19
-10 48 -24 39 -5 -3 -7 -10 -4 -15 7 -11 -5 -12 -23 -1 -9 7 -8 13 8 27 11 10
18 21 15 25 -2 4 8 18 23 31 l27 24 -25 -30 c-22 -27 -21 -27 13 4 20 19 37
38 37 42 0 5 11 20 25 35 26 28 35 61 13 48 -8 -5 -7 0 2 11 8 10 10 16 3 12
-6 -4 -14 -3 -17 2 -4 5 -2 12 4 16 6 4 7 12 4 18 -4 7 -3 9 1 4 13 -12 75 54
75 80 0 13 -4 23 -8 23 -5 0 -14 12 -21 26 -10 22 -9 26 3 21 8 -3 17 0 20 8
4 12 -48 62 -99 94 l-20 13 20 -7 c65 -22 76 -28 66 -35 -7 -4 1 -7 17 -7 28
0 29 1 13 17 -22 23 -120 85 -149 95 -13 4 -21 9 -19 11 3 3 21 -2 41 -10 20
-9 52 -23 71 -31 31 -14 35 -14 35 0 0 8 -3 14 -7 13 -5 -1 -28 11 -53 27 -25
16 -92 53 -150 83 -108 56 -138 63 -225 49 l-40 -6 35 14 c23 10 26 14 10 10
-14 -2 -31 -5 -37 -5 -7 0 -13 -6 -13 -13 0 -7 -13 -20 -29 -30 -44 -26 -103
-86 -98 -100 2 -7 -2 -26 -10 -44 -7 -18 -13 -44 -13 -58 0 -22 -9 -30 -32
-26 -5 0 -8 -9 -8 -21 0 -17 3 -19 9 -10 6 11 10 10 15 -3 5 -14 2 -16 -19
-13 -17 4 -25 1 -25 -9 0 -8 5 -11 10 -8 14 9 12 -8 -2 -24 -10 -11 -10 -13 0
-7 6 4 12 5 12 1 0 -12 -58 -28 -114 -30 -32 -1 -61 -7 -65 -12 -3 -6 -24 -13
-46 -17 -41 -8 -41 7 0 17 13 3 9 5 -12 6 -17 0 -43 -3 -57 -9 -18 -7 -25 -6
-23 2 1 6 -9 14 -23 18 -42 12 -166 12 -210 0 -42 -11 -46 -29 -7 -31 20 -1
20 -1 -3 -8 -14 -5 -44 -18 -67 -30 -28 -14 -52 -19 -68 -15 -25 6 -37 -10
-13 -18 8 -3 8 -10 -4 -26 -8 -12 -18 -19 -21 -15 -4 3 -7 -8 -7 -26 0 -18 -4
-30 -9 -26 -6 3 -9 -5 -9 -17 3 -46 -5 -152 -9 -130 -2 12 -8 22 -12 22 -8 0
-6 -53 3 -118 3 -18 1 -20 -10 -11 -17 14 -19 -2 -2 -19 9 -9 9 -15 -1 -24
-10 -11 -11 -9 -5 7 4 11 3 17 -1 12 -5 -4 -9 -16 -10 -27 -1 -10 -18 -33 -39
-49 -20 -16 -38 -33 -39 -38 -1 -4 -11 -9 -22 -10 -20 -3 -20 -3 0 13 15 11
17 17 7 23 -10 6 -10 10 3 21 27 22 59 104 61 155 0 17 3 41 7 55 5 21 15 115
17 158 0 7 5 10 12 6 6 -4 8 -3 5 4 -9 13 2 44 13 37 4 -3 7 3 6 13 0 10 5 16
14 14 8 -2 12 0 7 4 -9 9 52 74 69 74 7 0 19 6 26 13 39 39 199 53 360 32 213
-27 270 5 284 164 4 39 11 71 15 71 5 0 6 6 3 14 -3 7 2 21 11 30 9 9 13 16 8
16 -4 1 2 9 14 19 12 10 20 21 17 24 -6 6 50 50 60 48 4 -1 14 5 22 14 9 8 20
13 25 10 5 -4 9 -1 9 5 0 6 4 9 8 6 4 -2 29 0 55 6 57 12 172 -9 244 -45 63
-32 150 -60 162 -53 5 4 12 2 16 -4 3 -5 24 -10 46 -10 27 0 38 4 33 11 -4 8
0 9 15 4 12 -4 21 -2 21 4 0 6 6 8 14 5 7 -3 21 2 30 11 9 9 16 13 16 8 0 -4
5 0 11 10 6 10 22 22 35 27 13 5 24 16 24 24 0 7 6 16 14 19 8 3 14 15 13 26
-1 19 -2 19 -19 4 -10 -9 -18 -13 -18 -8 0 4 -8 1 -17 -6 -10 -7 0 6 21 29 37
39 45 70 11 42 -19 -16 -19 -10 0 26 24 47 15 114 -10 74 -5 -8 -11 -8 -20 0
-9 8 -15 8 -20 0 -11 -18 -27 -11 -20 11 5 14 1 25 -12 34 -12 9 -13 14 -5 15
8 0 12 9 10 23 -7 49 -232 172 -353 193 -101 17 -388 28 -380 14 9 -15 -27
-12 -50 3 -13 9 -29 11 -45 6 l-25 -7 28 -1 c15 -1 27 -5 27 -10 0 -4 -12 -6
-26 -3 -18 3 -25 1 -20 -6 4 -6 -2 -8 -16 -4 -14 3 -19 1 -14 -6 5 -8 2 -10
-8 -6 -9 3 -16 1 -16 -6 0 -6 -4 -8 -10 -5 -5 3 -10 2 -10 -2 0 -7 -30 -22
-62 -31 -4 -2 -24 -18 -45 -37 -21 -19 -41 -35 -45 -35 -17 0 -122 -142 -169
-231 -29 -54 -57 -95 -62 -92 -6 3 -7 1 -3 -6 4 -7 -7 -25 -28 -44 -48 -45
-59 -53 -87 -66 -17 -9 -15 -4 11 18 19 17 29 31 22 31 -7 0 -22 -9 -34 -20
-12 -11 -29 -20 -38 -20 -9 0 -20 -4 -25 -9 -6 -5 -38 -19 -72 -31 -65 -23
-119 -64 -71 -54 12 3 3 -4 -22 -16 -24 -11 -59 -32 -76 -45 -17 -13 -35 -21
-39 -17 -5 4 -6 2 -2 -3 9 -17 -36 -82 -53 -77 -13 5 -13 3 0 -13 8 -10 10
-16 3 -12 -12 8 -33 -41 -33 -77 0 -17 -2 -18 -10 -6 -10 16 -12 12 -12 -37 0
-18 -5 -30 -9 -27 -5 3 -9 0 -9 -6 0 -7 -14 -25 -31 -41 -26 -24 -34 -27 -48
-17 -13 10 -14 10 -4 -1 9 -10 3 -25 -25 -65 -47 -68 -58 -78 -37 -37 9 19 25
43 35 54 10 10 16 26 13 34 -4 10 -14 4 -37 -24 -54 -67 -99 -110 -86 -85 6
12 16 22 22 22 6 0 8 3 5 7 -4 3 2 13 14 21 11 8 18 20 15 29 -3 8 -2 12 2 9
4 -2 12 7 19 20 8 18 8 22 0 17 -23 -14 46 62 79 87 18 14 33 30 34 36 0 6 9
23 20 37 11 14 20 29 19 34 -4 21 2 34 13 27 8 -5 9 -2 5 10 -13 33 94 166
133 166 5 0 10 3 10 8 0 18 143 68 161 56 7 -4 9 -3 6 3 -4 6 11 15 32 21 59
18 118 63 152 117 17 28 34 52 38 55 3 3 6 11 7 18 2 29 5 33 14 27 5 -3 7 0
5 7 -7 18 49 120 60 111 4 -5 5 -2 1 4 -4 8 4 23 18 38 14 14 27 29 28 33 2 4
8 6 13 4 6 -2 6 0 2 4 -9 9 112 134 129 134 7 0 15 7 18 16 3 8 10 12 16 9 5
-3 10 -1 10 4 0 6 5 11 11 11 6 0 17 7 26 15 8 8 19 13 24 10 5 -4 9 -1 9 4 0
6 3 10 8 9 4 -1 43 10 87 24 95 31 193 53 218 49 10 -1 24 2 30 7 7 4 32 10
57 11 25 2 47 5 50 7 9 10 -26 24 -60 24 -22 0 -31 3 -24 10 5 5 47 10 93 11
l83 1 -40 23 c-109 62 -144 110 -158 216 l-7 52 -38 -44 c-21 -24 -49 -63 -61
-87 -14 -26 -28 -40 -36 -37 -8 3 -25 5 -38 5 -35 0 -40 25 -16 76 29 59 19
56 -19 -6 -30 -49 -53 -63 -62 -37 -3 9 -8 9 -16 1 -14 -13 -61 -7 -61 8 0 5
-4 7 -9 3 -6 -3 -28 -2 -51 1 l-41 7 4 101 c3 98 27 213 77 377 11 36 20 77
20 91 0 29 -35 78 -55 78 -14 0 -90 -80 -133 -142 -15 -20 -41 -44 -57 -52
-32 -15 -135 -33 -135 -23 0 3 32 58 70 121 79 131 114 203 124 261 17 99 36
134 102 192 50 44 68 68 85 112 11 31 32 73 46 93 21 31 47 107 39 115 -6 6
-94 -43 -119 -66 -16 -14 -56 -66 -89 -116 -42 -64 -105 -135 -221 -249 -89
-87 -156 -155 -149 -151 7 3 -7 -14 -30 -38 -27 -28 -46 -40 -50 -34 -4 6 -10
8 -14 4 -4 -3 -1 -13 5 -21 38 -46 -143 -162 -349 -222 -91 -27 -98 -32 -163
-96 -38 -38 -72 -66 -78 -63 -5 4 -9 -2 -9 -12 0 -10 -8 -26 -17 -35 -10 -10
-27 -27 -38 -39 -41 -43 -121 -71 -138 -47 -6 9 -7 8 -3 -4 5 -15 -1 -18 -40
-18 -25 0 -55 5 -66 11 -16 9 -22 8 -29 -2 -12 -20 15 -41 91 -73 69 -29 140
-71 202 -119 41 -31 42 -31 53 35 4 24 17 46 40 67 19 17 58 65 86 108 60 93
81 107 141 93 80 -18 178 -12 235 15 52 24 52 24 40 2 -7 -12 -54 -66 -104
-120 -51 -54 -93 -104 -93 -111 0 -7 -7 -19 -15 -26 -9 -7 -34 -35 -57 -63
l-42 -50 34 18 c82 42 178 127 276 245 88 106 102 118 110 97 12 -33 -25 -138
-71 -197 -25 -33 -50 -62 -55 -65 -6 -3 -15 -16 -20 -28 -14 -29 66 58 95 103
12 19 43 59 68 89 28 32 54 77 65 110 18 54 20 56 56 59 35 3 37 2 30 -20 -16
-52 -24 -96 -24 -148 -1 -119 -3 -123 -90 -159 -91 -37 -183 -94 -248 -155
-41 -37 -55 -44 -105 -50 -31 -3 -74 -13 -95 -21 -35 -14 -44 -13 -202 29 -91
24 -180 48 -197 54 -42 13 -41 9 1 -23 21 -16 56 -29 91 -35 64 -10 194 -49
212 -62 7 -5 13 -4 16 4 3 9 9 7 20 -7 8 -11 13 -24 10 -29 -4 -5 -1 -6 5 -2
6 4 9 13 6 21 -8 19 28 16 47 -4 8 -9 14 -18 14 -21 0 -3 3 -4 7 -3 4 2 5 -4
2 -12 -4 -8 -10 -12 -15 -9 -5 3 -19 -2 -31 -11 -23 -16 -23 -16 10 -12 40 6
40 2 0 -23 -18 -11 -46 -43 -63 -72 -23 -40 -47 -63 -94 -93 -35 -22 -112 -72
-170 -111 -125 -83 -148 -117 -181 -261 -19 -81 -37 -120 -75 -158 -5 -6 -35
-25 -66 -43 -47 -27 -67 -32 -121 -32 -63 0 -65 1 -163 72 -55 39 -136 97
-180 129 -45 32 -119 91 -165 131 -85 72 -85 72 -46 23 71 -89 259 -256 363
-323 79 -51 50 -54 -135 -16 -88 19 -159 27 -232 27 -93 1 -107 3 -123 21 -18
21 -18 21 -13 -6 5 -19 2 -28 -6 -28 -7 0 -49 -18 -93 -40 -107 -53 -115 -53
-115 9 0 47 -2 50 -27 53 -34 4 -38 31 -11 68 41 57 85 395 56 432 -11 15 -13
6 -15 -70 -3 -108 -20 -211 -44 -278 -35 -94 -174 -204 -311 -245 -81 -25 -83
-25 -83 3 0 15 25 42 85 90 126 102 218 191 230 223 6 16 20 62 30 102 11 40
32 103 47 139 l26 66 81 -5 c45 -3 91 -8 104 -12 20 -7 22 -4 22 24 0 46 17
38 43 -20 l22 -51 -4 86 c-2 66 2 101 18 156 12 38 23 70 26 70 2 0 21 -53 41
-117 60 -194 92 -239 214 -306 l51 -29 -17 39 c-50 113 -96 231 -109 283 -17
65 -20 283 -5 365 5 28 12 122 16 210 5 117 13 188 31 265 26 110 37 236 22
246 -5 3 -9 1 -9 -4 0 -5 -9 -12 -20 -15 -13 -3 -20 0 -20 9 0 8 5 14 10 14 6
0 10 5 10 11 0 8 -5 7 -15 -1 -9 -7 -18 -10 -22 -7 -10 10 19 38 33 33 8 -3
11 0 8 8 -3 8 5 21 17 30 13 8 20 19 16 22 -10 10 -228 -217 -220 -229 3 -6 1
-7 -5 -3 -10 6 -28 -16 -31 -36 -1 -5 -4 -8 -8 -9 -12 -1 -43 -31 -43 -41 0
-5 6 -6 13 -2 9 5 9 3 -1 -7 -7 -8 -18 -14 -25 -14 -7 -1 -11 -7 -9 -14 1 -7
-2 -10 -7 -7 -8 5 -175 -220 -210 -284 -20 -38 -117 -200 -199 -333 -96 -157
-112 -194 -133 -318 -22 -136 -54 -235 -84 -269 -12 -14 -48 -64 -79 -112
l-56 -88 -120 0 c-94 0 -120 3 -114 13 43 73 171 248 185 252 26 9 50 58 94
195 172 525 453 973 861 1370 149 145 234 217 381 323 491 354 1072 574 1653
626 261 24 453 21 705 -9z m-2681 -1171 c-3 -5 -10 -7 -15 -3 -5 3 -7 10 -3
15 3 5 10 7 15 3 5 -3 7 -10 3 -15z m-11 -22 c4 3 7 1 7 -5 0 -7 -4 -13 -10
-13 -5 -1 -16 -2 -22 -3 -22 -4 -29 5 -17 20 8 10 15 11 24 4 6 -5 15 -7 18
-3z m-67 -87 c0 -12 -4 -16 -9 -11 -5 5 -6 14 -3 20 10 15 12 14 12 -9z m-26
-34 c0 -2 -8 -10 -17 -17 -16 -13 -17 -12 -4 4 13 16 21 21 21 13z m2170 -148
c0 -64 -26 -233 -38 -253 -5 -7 -27 -8 -70 -2 l-64 9 7 36 c4 21 20 69 37 107
17 39 34 84 39 102 6 20 15 30 22 27 8 -2 22 4 32 16 29 32 35 24 35 -42z
m1110 -1047 c0 -5 -12 -17 -27 -26 l-28 -18 24 27 c26 28 31 31 31 17z m2627
-427 c-3 -3 -12 -4 -19 -1 -8 3 -5 6 6 6 11 1 17 -2 13 -5z m-2914 -21 c-7 -2
-19 -2 -25 0 -7 3 -2 5 12 5 14 0 19 -2 13 -5z m57 -21 c-6 -2 -8 -8 -4 -13 3
-5 -7 -4 -21 3 -15 7 -22 14 -16 16 6 2 9 7 6 12 -3 4 6 3 20 -3 13 -7 20 -14
15 -15z m-1147 -99 c-7 -2 -19 -2 -25 0 -7 3 -2 5 12 5 14 0 19 -2 13 -5z
m4559 -188 c3 -13 1 -22 -3 -19 -9 5 -13 44 -5 44 2 0 6 -11 8 -25z m15 -57
c-3 -8 -6 -5 -6 6 -1 11 2 17 5 13 3 -3 4 -12 1 -19z m-3627 -133 c0 -8 -4
-15 -10 -15 -5 0 -7 7 -4 15 4 8 8 15 10 15 2 0 4 -7 4 -15z m-30 -25 c0 -5
-5 -10 -11 -10 -5 0 -7 5 -4 10 3 6 8 10 11 10 2 0 4 -4 4 -10z m-66 -35 c-10
-8 -25 -15 -31 -15 -20 0 -15 -20 5 -20 14 0 15 -2 2 -10 -8 -5 -16 -6 -17 -2
-2 4 -42 6 -90 5 -49 0 -106 2 -128 6 -33 6 -20 9 70 15 61 4 128 13 150 20
55 18 62 18 39 1z m-309 -44 c13 -5 -6 -8 -50 -8 -46 0 -62 3 -45 8 33 9 70 9
95 0z m58 -8 c-7 -2 -19 -2 -25 0 -7 3 -2 5 12 5 14 0 19 -2 13 -5z m-1583
-57 c25 -8 65 -22 90 -32 34 -13 79 -17 182 -18 76 -1 138 -4 138 -8 0 -5 -7
-9 -15 -9 -8 -1 -19 -3 -25 -4 -5 -1 -16 -3 -22 -4 -9 -1 -8 -4 2 -11 12 -8
10 -10 -10 -10 -20 0 -22 -2 -10 -10 12 -8 11 -10 -7 -10 -27 0 -30 -12 -8
-30 21 -17 19 -33 -3 -26 -10 4 -42 7 -71 7 -28 1 -54 5 -57 10 -2 4 -11 6
-18 3 -12 -5 -72 7 -112 23 -8 3 -14 0 -14 -6 0 -6 7 -11 15 -11 8 0 15 -4 15
-10 0 -6 3 -9 8 -8 6 1 28 -7 72 -26 13 -5 -10 -3 -85 8 -11 2 -20 4 -20 5 0
2 -13 4 -30 5 -16 1 -43 6 -60 10 l-30 7 28 -25 c34 -31 35 -31 -56 -6 -111
31 -199 39 -334 30 -34 -2 -57 -7 -51 -11 6 -4 -8 -13 -33 -19 -50 -14 -171
-89 -163 -102 3 -5 2 -7 -3 -6 -24 8 -111 -101 -97 -123 4 -7 3 -10 -3 -6 -13
8 -26 -20 -16 -35 3 -7 1 -8 -5 -4 -8 5 -12 0 -12 -13 0 -10 -4 -21 -10 -23
-5 -1 -11 -15 -12 -30 -1 -15 -6 -25 -10 -22 -4 2 -5 14 -3 25 4 20 3 20 -14
5 -15 -13 -18 -14 -18 -1 0 8 5 11 11 8 6 -3 5 0 -1 8 -7 7 -13 23 -13 36 0
29 -26 30 -35 2 -6 -17 -9 -19 -16 -8 -4 8 -4 16 3 20 6 4 2 12 -11 21 -21 15
-27 68 -8 68 5 0 7 7 4 15 -4 8 -1 17 5 21 7 5 8 2 3 -6 -6 -9 -4 -11 4 -6 7
5 10 14 7 22 -3 7 4 23 14 36 11 13 19 19 20 14 0 -15 40 41 40 57 0 18 65 69
75 59 5 -4 5 -2 2 4 -4 7 4 19 18 28 14 9 25 13 25 9 0 -5 5 -1 10 7 5 8 13
15 17 15 18 0 93 38 93 47 0 5 5 6 10 3 6 -3 10 -2 10 3 0 6 11 13 24 16 13 3
32 9 43 12 15 5 15 4 3 -5 -9 -6 -10 -11 -3 -11 6 0 18 7 26 15 8 8 17 12 20
9 3 -4 11 -3 18 2 7 4 38 9 68 12 31 2 58 6 61 9 10 11 297 -7 340 -21z m5440
4 c-19 -13 -30 -13 -30 0 0 6 10 10 23 10 18 0 19 -2 7 -10z m-4894 -9 c-3 -4
-19 -14 -36 -21 -23 -9 -28 -15 -18 -21 9 -6 5 -9 -12 -9 -50 0 -53 17 -5 30
25 7 48 17 51 21 3 5 10 9 15 9 6 0 8 -4 5 -9z m3804 -176 c-7 -9 -15 -13 -19
-10 -3 3 1 10 9 15 21 14 24 12 10 -5z m1164 -3 c3 -5 -1 -9 -9 -9 -8 0 -12 4
-9 9 3 4 7 8 9 8 2 0 6 -4 9 -8z m-1194 -16 c0 -2 -8 -10 -17 -17 -16 -13 -17
-12 -4 4 13 16 21 21 21 13z m-4240 -34 c3 -3 -8 -2 -25 2 -16 4 -34 12 -40
17 -5 5 6 4 25 -2 19 -7 37 -14 40 -17z m-950 4 c0 -2 -8 -10 -17 -17 -16 -13
-17 -12 -4 4 13 16 21 21 21 13z m6297 -72 c-3 -3 -12 -4 -19 -1 -8 3 -5 6 6
6 11 1 17 -2 13 -5z m-3094 -44 c-14 -16 -28 -30 -30 -30 -2 0 6 14 19 30 12
17 25 30 30 30 4 0 -4 -13 -19 -30z m2884 -46 c-3 -3 -12 -4 -19 -1 -8 3 -5 6
6 6 11 1 17 -2 13 -5z m40 -10 c-3 -3 -12 -4 -19 -1 -8 3 -5 6 6 6 11 1 17 -2
13 -5z m-6207 -97 c0 -13 -6 -32 -14 -43 -13 -17 -14 -14 -4 24 12 47 18 54
18 19z m47 -19 c-3 -8 -6 -5 -6 6 -1 11 2 17 5 13 3 -3 4 -12 1 -19z m5500
-14 c-3 -3 -12 -4 -19 -1 -8 3 -5 6 6 6 11 1 17 -2 13 -5z m90 -110 c-3 -3
-12 -4 -19 -1 -8 3 -5 6 6 6 11 1 17 -2 13 -5z m-2596 -57 c-7 -7 -14 -8 -21
-1 -6 6 -2 10 12 11 16 2 18 -1 9 -10z m123 -15 c-6 -4 -18 -20 -27 -37 -9
-16 -16 -25 -17 -20 0 17 41 78 48 71 3 -4 2 -10 -4 -14z m-134 -13 c0 -15
-18 -19 -23 -6 -3 8 1 14 9 14 8 0 14 -4 14 -8z m-844 -72 c-24 -23 -62 -87
-58 -99 1 -5 -2 -8 -8 -8 -14 0 -12 -27 3 -33 9 -4 9 -8 -3 -16 -8 -5 -18 -7
-24 -4 -5 3 -6 1 -3 -5 9 -14 -3 -43 -14 -36 -5 3 -9 0 -9 -7 0 -7 -3 -10 -6
-7 -3 4 -20 2 -37 -3 -38 -11 -106 -1 -85 12 10 7 10 9 -2 10 -8 1 -23 1 -32
0 -11 -2 -18 5 -18 16 0 15 -2 16 -10 3 -9 -15 -11 -13 -14 13 -1 7 -14 11
-33 10 -18 -2 -34 1 -37 5 -2 4 -23 6 -45 4 -25 -3 -38 -8 -34 -14 4 -7 -4 -9
-20 -6 -15 3 -24 1 -21 -3 3 -5 0 -9 -6 -9 -15 0 -69 -39 -96 -70 -13 -14 -33
-47 -46 -75 -12 -27 -25 -52 -28 -55 -3 -3 -7 -14 -8 -25 -2 -11 -7 -22 -10
-25 -4 -3 -8 -14 -10 -25 -4 -25 -74 -128 -84 -123 -4 1 -15 -7 -23 -20 -9
-12 -20 -20 -25 -17 -4 3 -11 -2 -14 -11 -4 -9 -13 -14 -22 -10 -8 3 -13 2
-10 -2 3 -4 -4 -13 -14 -20 -18 -11 -19 -10 -10 13 9 24 9 25 -13 14 -12 -7
-23 -12 -24 -11 -2 1 -2 -1 0 -5 1 -5 5 -7 10 -6 4 2 7 -4 7 -13 0 -8 -4 -12
-10 -9 -5 3 -10 2 -10 -3 0 -4 -20 -23 -45 -42 -24 -18 -43 -38 -42 -44 1 -6
-8 -10 -20 -9 -15 2 -22 -3 -22 -15 -1 -15 -5 -50 -11 -87 -1 -5 -5 -1 -10 10
-8 19 -9 19 -9 1 -1 -11 -4 -16 -8 -13 -4 4 -19 -5 -35 -20 -15 -15 -28 -23
-28 -19 0 5 9 17 21 27 11 10 18 23 14 28 -3 6 -1 11 5 11 13 0 36 54 39 93 1
5 6 5 11 2 6 -3 10 3 10 14 0 12 4 21 9 21 5 0 12 8 16 18 6 20 74 79 95 84 7
2 24 13 38 26 14 12 27 20 30 18 6 -7 111 97 106 105 -2 4 3 15 12 23 8 9 13
16 10 16 -2 0 2 20 11 45 8 25 19 45 25 45 5 0 7 4 4 9 -8 13 4 42 15 35 5 -3
6 2 3 10 -4 9 1 18 10 22 9 3 14 9 11 13 -7 13 26 52 37 45 6 -4 8 -3 5 3 -3
5 8 24 26 40 32 31 97 69 97 57 0 -4 6 -2 13 4 26 22 120 6 190 -32 48 -26 78
-36 112 -36 49 0 110 25 100 41 -4 5 -1 8 5 7 14 -4 70 93 62 107 -3 6 -2 7 2
3 9 -7 36 13 31 22 -2 3 5 6 16 7 17 2 16 0 -5 -20z m24 -65 c0 -5 -7 -9 -15
-9 -8 0 -12 4 -9 9 3 4 9 8 15 8 5 0 9 -4 9 -8z m1490 -126 c0 -2 -8 -10 -17
-17 -16 -13 -17 -12 -4 4 13 16 21 21 21 13z m117 -22 c-3 -3 -12 -4 -19 -1
-8 3 -5 6 6 6 11 1 17 -2 13 -5z m498 -124 c3 -5 -4 -6 -15 -3 -11 3 -22 9
-25 13 -3 5 4 6 15 3 11 -3 22 -9 25 -13z m-2622 -446 c-3 -8 -9 -11 -14 -8
-5 3 -9 0 -9 -5 0 -6 -7 -11 -16 -11 -8 0 -12 -4 -9 -10 6 -10 -7 -14 -32 -11
-6 1 -14 -3 -17 -8 -9 -14 13 -24 27 -13 23 17 44 20 44 6 0 -7 -4 -11 -9 -8
-4 3 -8 1 -8 -4 0 -5 -13 -15 -30 -22 -49 -20 -123 -100 -158 -171 -17 -37
-32 -74 -32 -83 0 -32 -43 -100 -93 -148 -27 -26 -54 -45 -58 -42 -5 3 -9 0
-9 -6 0 -6 -4 -8 -10 -5 -5 3 -10 1 -10 -6 0 -7 -3 -10 -6 -6 -4 3 -20 -1 -36
-9 -17 -9 -32 -13 -36 -10 -3 3 -12 0 -20 -7 -13 -9 -14 -9 -8 1 4 6 2 12 -3
12 -6 0 -11 -7 -11 -16 0 -11 -6 -13 -19 -9 -11 3 -22 1 -26 -5 -7 -12 -102
-62 -110 -58 -2 2 -11 -6 -20 -17 -9 -11 -13 -13 -9 -5 4 8 14 24 23 34 15 18
15 18 -4 8 -47 -26 -90 -43 -72 -29 9 8 17 20 16 28 0 10 -2 11 -6 1 -2 -6 -9
-10 -14 -7 -5 3 -17 1 -28 -5 -17 -8 -20 -7 -18 9 0 11 5 17 9 15 4 -3 8 0 8
6 0 6 5 8 10 5 6 -3 10 -1 10 4 0 6 3 10 8 9 4 -1 38 13 75 31 37 18 73 34 80
35 7 2 20 6 29 10 9 4 22 9 30 10 15 3 58 20 111 43 20 9 55 35 77 59 21 23
41 39 45 36 3 -4 3 1 -1 11 -4 11 0 19 10 23 9 3 14 10 11 14 -8 12 6 41 16
34 5 -3 6 2 3 10 -7 17 45 118 56 111 4 -3 7 3 6 13 0 9 5 16 12 14 8 -1 11 2
8 7 -8 12 92 113 105 106 5 -4 9 -1 9 4 0 6 3 10 8 10 11 -3 72 22 72 29 0 4
11 8 24 8 17 1 23 -2 19 -12z m2097 -48 c0 -2 -8 -10 -17 -17 -16 -13 -17 -12
-4 4 13 16 21 21 21 13z m595 -17 c11 -12 -8 -10 -75 10 -33 10 -32 10 15 6
27 -3 54 -10 60 -16z m-985 -21 c41 -5 116 -20 167 -33 50 -13 102 -21 114
-18 17 5 20 3 14 -7 -6 -11 7 -12 68 -6 42 4 95 13 117 21 22 8 40 12 40 10 0
-10 -90 -56 -99 -51 -5 3 -11 1 -13 -5 -2 -6 -38 -12 -84 -14 -45 -2 -91 -9
-102 -16 -17 -11 -28 -11 -54 -1 -18 6 -43 9 -54 6 -12 -3 -25 -1 -28 5 -4 5
-13 8 -21 4 -8 -3 -23 -2 -32 3 -10 4 -29 9 -43 10 -14 2 -45 7 -70 13 -60 14
-205 14 -293 0 -49 -8 -72 -8 -75 -1 -3 11 -56 7 -109 -10 -23 -7 -33 -16 -33
-30 0 -13 -5 -18 -14 -15 -17 7 -197 -63 -216 -83 -9 -9 -65 -34 -72 -32 -5 1
-8 -3 -8 -9 0 -5 -4 -8 -9 -4 -6 3 -14 -3 -20 -12 -6 -10 -11 -14 -11 -10 0 5
-7 1 -16 -7 -8 -9 -20 -14 -25 -11 -5 4 -9 1 -9 -5 0 -8 -9 -10 -24 -6 -17 4
-43 -5 -88 -30 -34 -21 -76 -44 -93 -52 -16 -9 -32 -18 -35 -21 -3 -3 -32 -24
-65 -46 -33 -22 -61 -43 -63 -47 -2 -5 -10 -8 -18 -8 -8 0 -14 -3 -14 -7 0 -5
-12 -21 -26 -38 -25 -30 -25 -30 2 13 15 23 31 42 35 42 5 0 8 6 6 13 -1 6 4
11 11 10 6 -2 12 4 12 12 0 8 5 16 10 16 6 1 14 2 19 3 23 3 21 16 -2 16 -15
0 -27 -4 -27 -9 0 -5 -9 -13 -20 -16 -11 -4 -33 -17 -48 -30 -26 -22 -28 -22
-29 -4 -1 12 3 17 9 13 6 -4 8 -2 4 4 -3 6 1 15 10 20 15 8 15 10 0 15 -10 4
-21 -1 -28 -13 -7 -11 -20 -20 -28 -20 -9 0 -22 -6 -29 -12 -9 -10 -9 -6 1 13
7 14 33 46 57 70 24 24 40 37 36 29 -4 -8 7 1 24 20 18 19 29 28 26 20 -4 -8
2 -5 12 6 25 30 80 64 69 44 -4 -8 0 -6 8 4 9 11 16 16 16 10 0 -5 6 -2 13 7
12 16 46 33 60 31 4 -1 7 3 7 9 0 5 5 7 10 4 6 -3 10 -1 10 5 0 6 3 9 8 6 4
-2 34 9 67 26 81 40 177 76 192 71 6 -2 14 1 18 6 3 6 14 11 24 11 10 0 39 9
65 20 25 12 58 23 74 25 15 2 41 8 59 14 17 5 33 7 35 5 3 -2 36 3 74 12 94
22 119 25 191 27 34 1 65 6 69 10 10 9 172 1 284 -15z m-2320 -22 c0 -3 -4 -8
-10 -11 -5 -3 -10 -1 -10 4 0 6 5 11 10 11 6 0 10 -2 10 -4z m-100 -46 c0 -5
-6 -10 -12 -10 -7 0 -24 -3 -38 -5 -22 -5 -21 -3 5 9 36 18 45 19 45 6z m40
-5 c-7 -9 -15 -13 -19 -10 -3 3 1 10 9 15 21 14 24 12 10 -5z m2940 12 c0 -2
-10 -12 -22 -23 l-23 -19 19 23 c18 21 26 27 26 19z m-3100 -41 c0 -3 -4 -8
-10 -11 -5 -3 -10 -1 -10 4 0 6 5 11 10 11 6 0 10 -2 10 -4z m2030 0 c0 -2
-15 -6 -34 -8 -19 -2 -32 0 -30 4 5 8 64 12 64 4z m975 -16 c-3 -5 -23 -9 -43
-9 l-37 1 30 8 c44 11 57 11 50 0z m-3088 -6 c-3 -3 -12 -4 -19 -1 -8 3 -5 6
6 6 11 1 17 -2 13 -5z m2970 -11 c-20 -2 -52 -2 -70 0 -17 2 0 4 38 4 39 0 53
-2 32 -4z m-1957 -26 c0 -2 -12 -14 -27 -28 l-28 -24 24 28 c23 25 31 32 31
24z m-74 -85 c-18 -16 -18 -16 -6 6 6 13 14 21 18 18 3 -4 -2 -14 -12 -24z
m-23 -37 c-7 -21 -12 -19 -10 4 0 11 5 18 9 15 4 -3 5 -11 1 -19z m622 -95
c-16 -16 -32 -30 -37 -30 -8 0 53 59 61 60 3 0 -8 -13 -24 -30z m-407 -181
c-13 -13 -31 -35 -41 -49 -18 -25 -18 -25 -1 5 20 35 56 77 61 71 2 -2 -6 -14
-19 -27z m-1093 -28 c3 -5 2 -12 -3 -15 -5 -3 -9 1 -9 9 0 17 3 19 12 6z m103
-43 c-8 -7 -30 -26 -49 -43 l-34 -30 30 35 c34 39 58 60 64 55 2 -2 -3 -10
-11 -17z m-1023 -58 c10 -11 16 -20 13 -20 -3 0 -13 9 -23 20 -10 11 -16 20
-13 20 3 0 13 -9 23 -20z m1350 -30 c-3 -5 -16 -15 -28 -21 -19 -9 -19 -8 3
10 28 23 34 26 25 11z m1785 -260 c-8 -5 -26 -9 -40 -9 -23 1 -23 2 5 9 43 11
52 11 35 0z m-10 -45 c0 -6 -56 -35 -67 -35 -4 1 8 9 27 20 39 22 40 22 40 15z
m-1125 -72 c-36 -14 -105 -21 -222 -23 -33 0 -49 -7 -73 -30 -23 -23 -37 -29
-53 -25 -17 5 -19 4 -7 -4 12 -9 10 -11 -10 -11 -15 0 -31 -5 -38 -12 -7 -7
-12 -9 -12 -4 0 4 -7 0 -16 -8 -8 -9 -21 -16 -27 -16 -8 0 -7 3 2 9 9 6 3 10
-20 13 -26 4 -29 3 -16 -7 20 -14 12 -25 -43 -57 -25 -15 -72 -50 -105 -79
-33 -29 -50 -42 -37 -28 12 14 19 29 15 34 -5 4 -3 5 4 1 12 -6 28 10 28 29 0
6 7 10 15 10 17 0 20 7 19 33 0 10 -3 12 -6 4 -2 -6 -9 -10 -14 -6 -5 3 -9 0
-9 -7 0 -7 -3 -9 -7 -6 -3 4 -17 -3 -30 -15 -35 -32 -37 -17 -3 21 17 18 30
29 30 24 1 -4 9 2 20 15 10 13 23 23 27 24 18 2 33 11 29 17 -3 4 4 13 16 20
16 10 19 10 13 -1 -3 -7 0 -5 8 4 8 10 17 15 20 11 4 -3 7 -1 7 6 0 7 5 9 10
6 6 -3 10 -1 10 5 0 6 4 9 8 6 5 -3 24 5 43 16 50 31 145 45 314 46 147 1 149
1 110 -15z m-235 -53 c13 -9 13 -10 0 -10 -8 0 -22 5 -30 10 -13 9 -13 10 0
10 8 0 22 -5 30 -10z m63 3 c-7 -2 -19 -2 -25 0 -7 3 -2 5 12 5 14 0 19 -2 13
-5z m-558 -224 c1 -11 -7 -25 -19 -31 -12 -6 -30 -19 -42 -30 -26 -24 -72 -35
-54 -13 7 8 16 12 21 9 5 -3 9 0 9 7 0 7 3 10 6 6 3 -3 17 5 31 19 14 14 22
28 19 31 -3 3 -1 12 6 20 13 16 21 10 23 -18z m18 -46 c-7 -3 -13 -11 -13 -19
0 -8 -4 -14 -8 -14 -5 0 -15 -11 -22 -25 -7 -14 -15 -23 -17 -21 -5 5 22 50
45 79 9 9 18 14 21 11 3 -4 0 -9 -6 -11z m1534 11 c-3 -3 -12 -4 -19 -1 -8 3
-5 6 6 6 11 1 17 -2 13 -5z"/>
<path d="M5000 8518 c63 -5 166 -4 230 0 104 8 94 9 -115 8 -208 0 -219 0
-115 -8z"/>
<path d="M4793 8513 c9 -2 25 -2 35 0 9 3 1 5 -18 5 -19 0 -27 -2 -17 -5z"/>
<path d="M5373 8513 c15 -2 37 -2 50 0 12 2 0 4 -28 4 -27 0 -38 -2 -22 -4z"/>
<path d="M4713 8503 c9 -2 23 -2 30 0 6 3 -1 5 -18 5 -16 0 -22 -2 -12 -5z"/>
<path d="M5473 8503 c9 -2 25 -2 35 0 9 3 1 5 -18 5 -19 0 -27 -2 -17 -5z"/>
<path d="M4638 8493 c6 -2 18 -2 25 0 6 3 1 5 -13 5 -14 0 -19 -2 -12 -5z"/>
<path d="M5553 8493 c9 -2 25 -2 35 0 9 3 1 5 -18 5 -19 0 -27 -2 -17 -5z"/>
<path d="M5628 8483 c6 -2 18 -2 25 0 6 3 1 5 -13 5 -14 0 -19 -2 -12 -5z"/>
<path d="M5683 8473 c9 -2 23 -2 30 0 6 3 -1 5 -18 5 -16 0 -22 -2 -12 -5z"/>
<path d="M5748 8463 c12 -2 20 -8 17 -12 -2 -5 8 -6 23 -3 l27 6 -25 7 c-14 4
-34 7 -45 7 -16 -1 -16 -2 3 -5z"/>
<path d="M5905 8424 c50 -13 94 -22 100 -21 11 4 -158 47 -177 46 -7 0 28 -12
77 -25z"/>
<path d="M6070 8370 c-13 -8 -13 -10 2 -10 9 0 20 5 23 10 8 13 -5 13 -25 0z"/>
<path d="M6105 8360 c-3 -5 0 -7 8 -5 7 3 30 -1 50 -10 20 -8 42 -15 49 -15
13 1 -80 40 -94 40 -4 0 -10 -4 -13 -10z"/>
<path d="M6240 8320 c8 -5 20 -10 25 -10 6 0 3 5 -5 10 -8 5 -19 10 -25 10 -5
0 -3 -5 5 -10z"/>
<path d="M6292 8296 c7 -8 16 -12 19 -10 3 1 18 -4 33 -12 16 -7 33 -14 40
-13 11 1 -82 47 -97 48 -4 1 -2 -5 5 -13z"/>
<path d="M6248 8293 c7 -3 16 -2 19 1 4 3 -2 6 -13 5 -11 0 -14 -3 -6 -6z"/>
<path d="M6435 8238 c22 -11 42 -24 45 -27 3 -3 14 -8 25 -9 11 -2 26 -9 33
-14 7 -6 15 -9 17 -6 3 3 -29 21 -70 42 -81 39 -116 49 -50 14z"/>
<path d="M3740 8220 c-9 -6 -10 -10 -3 -10 6 0 15 5 18 10 8 12 4 12 -15 0z"/>
<path d="M6570 8176 c0 -2 7 -7 16 -10 8 -3 12 -2 9 4 -6 10 -25 14 -25 6z"/>
<path d="M6625 8143 c11 -11 23 -19 27 -17 3 2 12 -2 20 -9 7 -7 28 -19 46
-26 26 -11 30 -16 21 -27 -7 -9 -8 -14 -1 -14 5 0 12 6 15 14 4 10 -15 26 -61
52 -91 50 -89 50 -67 27z"/>
<path d="M3524 8104 c-18 -14 -18 -15 4 -4 12 6 22 13 22 15 0 8 -5 6 -26 -11z"/>
<path d="M5030 8106 c0 -9 5 -16 10 -16 6 0 10 4 10 9 0 6 -4 13 -10 16 -5 3
-10 -1 -10 -9z"/>
<path d="M3474 8074 c-18 -14 -18 -15 4 -4 12 6 22 13 22 15 0 8 -5 6 -26 -11z"/>
<path d="M6770 8066 c0 -3 9 -10 20 -16 11 -6 20 -8 20 -6 0 3 -9 10 -20 16
-11 6 -20 8 -20 6z"/>
<path d="M3424 8044 c-18 -14 -18 -15 4 -4 12 6 22 13 22 15 0 8 -5 6 -26 -11z"/>
<path d="M6820 8032 c0 -5 12 -14 26 -20 14 -7 23 -8 19 -2 -9 15 -45 32 -45
22z"/>
<path d="M3323 7979 c-24 -17 -43 -32 -43 -35 0 -3 20 9 45 26 25 17 45 33 45
35 0 7 -2 6 -47 -26z"/>
<path d="M4775 8000 c3 -5 8 -10 11 -10 2 0 4 5 4 10 0 6 -5 10 -11 10 -5 0
-7 -4 -4 -10z"/>
<path d="M6891 7988 c9 -7 15 -19 13 -26 -1 -7 0 -8 3 -2 2 5 10 7 15 4 7 -4
8 -2 4 4 -4 7 -17 17 -29 22 -19 10 -20 9 -6 -2z"/>
<path d="M6963 7938 c28 -25 27 -48 -2 -26 -9 7 -7 2 4 -11 16 -19 21 -20 23
-7 4 20 11 20 35 -1 11 -10 17 -12 13 -6 -4 7 -28 27 -54 44 -31 20 -38 22
-19 7z"/>
<path d="M3100 7812 c-52 -44 -104 -90 -115 -103 -11 -13 3 -4 30 21 28 25 81
69 118 99 61 50 73 61 64 61 -1 0 -45 -35 -97 -78z"/>
<path d="M7105 7827 c33 -32 62 -57 65 -57 3 0 48 -40 100 -90 52 -49 98 -90
103 -90 4 0 7 -3 7 -7 0 -5 41 -51 90 -103 61 -64 89 -101 86 -113 -2 -10 0
-14 6 -11 6 4 26 -11 45 -32 20 -21 29 -30 22 -19 -82 123 -370 414 -534 540
-49 37 -49 37 10 -18z"/>
<path d="M4600 7833 c-13 -15 -12 -16 4 -10 10 4 20 7 22 7 2 0 4 5 4 10 0 15
-13 12 -30 -7z"/>
<path d="M4515 7740 c3 -5 8 -10 11 -10 2 0 4 5 4 10 0 6 -5 10 -11 10 -5 0
-7 -4 -4 -10z"/>
<path d="M4375 7560 c3 -5 8 -10 11 -10 2 0 4 5 4 10 0 6 -5 10 -11 10 -5 0
-7 -4 -4 -10z"/>
<path d="M6485 7460 c-3 -5 -2 -10 4 -10 5 0 11 -10 13 -22 l3 -23 7 22 c7 24
-15 52 -27 33z"/>
<path d="M4190 7439 c0 -5 5 -7 10 -4 6 3 10 8 10 11 0 2 -4 4 -10 4 -5 0 -10
-5 -10 -11z"/>
<path d="M5079 7383 c-13 -39 -87 -323 -84 -323 1 0 15 19 32 43 17 23 38 71
48 107 17 67 32 210 22 210 -3 0 -11 -17 -18 -37z"/>
<path d="M6453 7384 c-15 -16 -33 -24 -57 -24 -19 0 -42 -8 -51 -17 -14 -14
-20 -14 -37 -4 -15 9 -23 10 -31 2 -8 -8 -5 -11 10 -11 37 0 34 -15 -8 -40
-21 -14 -39 -28 -39 -33 0 -4 -5 -5 -10 -2 -10 6 -47 -23 -43 -34 1 -3 -9 -5
-23 -4 -55 4 -3 -66 83 -110 l51 -27 22 42 c12 24 34 58 49 77 l28 34 -5 -55
c-6 -82 13 -162 50 -198 17 -17 32 -30 33 -28 2 2 -6 30 -17 63 -13 38 -21 88
-22 135 -1 63 3 80 22 107 12 17 25 46 29 65 6 29 5 32 -10 20 -13 -11 -15
-10 -10 8 3 11 9 23 14 26 11 6 12 34 2 33 -5 -1 -18 -12 -30 -25z"/>
<path d="M3025 7325 c13 -151 19 -185 40 -235 13 -30 30 -73 39 -95 15 -39 15
-39 15 -10 1 60 -20 221 -35 276 -9 31 -26 69 -39 85 l-24 29 4 -50z"/>
<path d="M3890 7320 c0 -5 5 -10 10 -10 6 0 10 5 10 10 0 6 -4 10 -10 10 -5 0
-10 -4 -10 -10z"/>
<path d="M7664 7247 c16 -20 30 -37 33 -37 7 0 -36 58 -49 66 -7 4 1 -9 16
-29z"/>
<path d="M7160 7232 c-82 -51 -133 -89 -141 -104 -8 -14 -14 -16 -29 -8 -17 9
-19 8 -11 -12 9 -24 -29 -110 -109 -248 -54 -93 -120 -324 -135 -471 -4 -36
-10 -71 -14 -77 -4 -7 -51 -13 -121 -15 -64 -1 -32 -3 70 -3 102 0 164 1 138
3 -27 2 -48 6 -48 7 0 2 11 29 25 59 26 59 97 288 115 372 6 28 22 66 35 85
13 19 47 83 74 143 43 91 54 107 74 107 13 0 26 -2 29 -5 9 -9 -11 -110 -46
-226 -19 -63 -46 -159 -62 -214 -15 -55 -37 -124 -50 -152 -13 -29 -20 -53
-16 -53 18 0 102 100 130 155 51 99 54 113 63 300 6 143 13 200 33 274 14 52
25 95 23 97 -1 1 -13 -5 -27 -14z"/>
<path d="M7736 7148 c20 -32 39 -58 41 -58 7 0 -29 58 -55 88 -13 15 -6 1 14
-30z"/>
<path d="M3768 7183 c7 -3 16 -2 19 1 4 3 -2 6 -13 5 -11 0 -14 -3 -6 -6z"/>
<path d="M6530 7162 c0 -29 42 -92 97 -143 65 -59 203 -163 203 -151 0 4 -22
23 -48 42 -155 115 -201 160 -232 225 -11 22 -20 34 -20 27z"/>
<path d="M3710 7130 c-21 -17 -22 -20 -7 -20 17 0 47 22 47 34 0 11 -15 6 -40
-14z"/>
<path d="M7780 7077 c0 -5 14 -28 30 -52 17 -24 30 -48 30 -54 0 -6 5 -11 11
-11 6 0 9 -14 7 -32 -2 -22 1 -32 9 -31 7 2 10 -3 7 -11 -3 -8 -1 -17 4 -20 6
-3 13 2 16 11 4 10 -9 44 -34 87 -43 75 -79 126 -80 113z"/>
<path d="M3954 7026 c-12 -31 2 -121 26 -169 24 -48 48 -65 36 -24 -4 12 -16
62 -26 111 -20 95 -26 108 -36 82z"/>
<path d="M7815 6970 c3 -5 8 -10 11 -10 2 0 4 5 4 10 0 6 -5 10 -11 10 -5 0
-7 -4 -4 -10z"/>
<path d="M7830 6941 c0 -6 5 -13 10 -16 6 -3 10 1 10 9 0 9 -4 16 -10 16 -5 0
-10 -4 -10 -9z"/>
<path d="M7900 6865 c0 -8 5 -15 11 -15 7 0 9 -12 5 -35 -7 -34 9 -53 16 -19
2 8 8 -1 14 -20 6 -19 7 -33 3 -30 -13 8 -21 -16 -10 -30 11 -13 61 -28 61
-19 0 8 -91 183 -95 183 -3 0 -5 -7 -5 -15z"/>
<path d="M5690 6832 c0 -24 23 -107 34 -121 9 -12 8 -13 -6 -8 -43 17 -53 20
-48 15 12 -12 72 -39 65 -29 -3 6 0 14 9 17 17 6 14 16 -25 88 -16 28 -29 45
-29 38z"/>
<path d="M7890 6831 c0 -5 5 -13 10 -16 6 -3 10 -2 10 4 0 5 -4 13 -10 16 -5
3 -10 2 -10 -4z"/>
<path d="M6695 6738 c-230 -128 -234 -129 -318 -144 -78 -13 -377 -84 -386
-91 -17 -13 25 -12 131 2 122 17 308 33 308 27 0 -2 -6 -15 -14 -30 -24 -47
-88 -74 -210 -88 -22 -3 -46 -10 -53 -16 -8 -6 -13 -7 -13 -1 0 5 -17 15 -39
21 -62 19 -60 12 4 -18 42 -20 65 -25 77 -19 9 5 27 9 40 9 21 0 130 33 183
55 14 6 6 -10 -27 -58 l-47 -66 47 -6 c26 -3 57 -8 70 -11 12 -2 22 -1 22 4 0
4 17 16 38 25 21 9 49 29 63 43 l24 26 -27 -13 c-16 -7 -28 -15 -28 -19 0 -4
-16 -11 -35 -14 -21 -4 -35 -13 -35 -21 0 -17 -12 -18 -59 -9 l-32 7 73 71
c80 78 155 136 175 136 7 0 13 9 13 19 0 11 24 46 53 78 56 61 122 152 115
158 -2 2 -53 -23 -113 -57z"/>
<path d="M5610 6740 c8 -5 20 -10 25 -10 6 0 3 5 -5 10 -8 5 -19 10 -25 10 -5
0 -3 -5 5 -10z"/>
<path d="M5750 6670 c0 -12 28 -21 35 -11 2 5 -4 11 -15 14 -11 3 -20 2 -20
-3z"/>
<path d="M5730 6649 c51 -40 80 -60 80 -54 0 10 -47 54 -53 49 -2 -2 -10 2
-17 11 -7 8 -18 15 -24 15 -6 0 0 -9 14 -21z"/>
<path d="M5813 6613 c29 -28 34 -39 26 -50 -8 -8 -8 -13 -1 -13 6 0 13 6 15
13 3 6 6 3 6 -7 1 -11 4 -17 7 -13 3 3 26 -10 51 -29 40 -30 63 -41 63 -30 0
2 -20 16 -44 30 -23 14 -63 50 -87 80 -24 30 -50 55 -58 56 -8 0 2 -16 22 -37z"/>
<path d="M7420 6561 c0 -38 42 -199 56 -217 14 -18 15 -18 10 1 -2 11 -7 43
-11 70 -8 66 -33 152 -45 160 -6 3 -10 -3 -10 -14z"/>
<path d="M5916 6481 c-3 -5 3 -11 15 -14 16 -4 18 -3 8 9 -13 16 -16 17 -23 5z"/>
<path d="M6868 6283 c6 -2 18 -2 25 0 6 3 1 5 -13 5 -14 0 -19 -2 -12 -5z"/>
<path d="M6588 6273 c23 -2 59 -2 80 0 20 2 1 4 -43 4 -44 0 -61 -2 -37 -4z"/>
<path d="M4270 5899 c0 -5 5 -7 10 -4 6 3 10 8 10 11 0 2 -4 4 -10 4 -5 0 -10
-5 -10 -11z"/>
<path d="M5059 5654 c-23 -25 -23 -26 -2 -15 23 12 38 29 31 37 -3 2 -15 -8
-29 -22z"/>
<path d="M4444 5576 c-10 -8 -17 -17 -14 -19 3 -3 14 1 24 9 11 7 17 16 15 19
-3 3 -14 -2 -25 -9z"/>
<path d="M6341 5574 c0 -11 3 -14 6 -6 3 7 2 16 -1 19 -3 4 -6 -2 -5 -13z"/>
<path d="M9010 5372 c0 -11 27 -42 37 -42 3 0 -2 10 -13 23 -10 12 -20 24 -21
26 -2 2 -3 -1 -3 -7z"/>
<path d="M4275 5141 c-6 -11 9 -23 19 -14 9 9 7 23 -3 23 -6 0 -12 -4 -16 -9z"/>
<path d="M4255 5099 c-4 -6 -5 -13 -2 -16 7 -7 27 6 27 18 0 12 -17 12 -25 -2z"/>
<path d="M6351 4894 c0 -11 3 -14 6 -6 3 7 2 16 -1 19 -3 4 -6 -2 -5 -13z"/>
<path d="M9210 4650 c0 -5 4 -10 9 -10 6 0 13 5 16 10 3 6 -1 10 -9 10 -9 0
-16 -4 -16 -10z"/>
<path d="M9115 4580 c-3 -5 -1 -10 4 -10 6 0 11 5 11 10 0 6 -2 10 -4 10 -3 0
-8 -4 -11 -10z"/>
<path d="M5706 4423 c-6 -14 -5 -15 5 -6 7 7 10 15 7 18 -3 3 -9 -2 -12 -12z"/>
<path d="M6655 4390 c3 -5 8 -10 11 -10 2 0 4 5 4 10 0 6 -5 10 -11 10 -5 0
-7 -4 -4 -10z"/>
<path d="M8575 4249 c-12 -18 3 -22 20 -5 14 14 14 16 1 16 -8 0 -18 -5 -21
-11z"/>
<path d="M8530 4200 c0 -5 5 -10 10 -10 6 0 10 5 10 10 0 6 -4 10 -10 10 -5 0
-10 -4 -10 -10z"/>
<path d="M8506 4175 c-9 -26 -7 -32 5 -12 6 10 9 21 6 23 -2 3 -7 -2 -11 -11z"/>
<path d="M8417 4013 c-4 -3 -7 -11 -7 -17 0 -6 5 -5 12 2 6 6 9 14 7 17 -3 3
-9 2 -12 -2z"/>
<path d="M8141 3294 c0 -11 3 -14 6 -6 3 7 2 16 -1 19 -3 4 -6 -2 -5 -13z"/>
<path d="M7810 2780 c0 -5 5 -10 10 -10 6 0 10 5 10 10 0 6 -4 10 -10 10 -5 0
-10 -4 -10 -10z"/>
<path d="M7775 2730 c-3 -5 -1 -10 4 -10 6 0 11 5 11 10 0 6 -2 10 -4 10 -3 0
-8 -4 -11 -10z"/>
<path d="M7610 2541 c0 -6 5 -13 10 -16 6 -3 10 1 10 9 0 9 -4 16 -10 16 -5 0
-10 -4 -10 -9z"/>
<path d="M2795 2481 c-3 -5 -1 -12 5 -16 5 -3 10 1 10 9 0 18 -6 21 -15 7z"/>
<path d="M2820 2452 c1 -13 70 -85 70 -73 0 6 -16 27 -35 45 -19 19 -35 31
-35 28z"/>
<path d="M7450 2380 c0 -5 7 -10 16 -10 8 0 12 5 9 10 -3 6 -10 10 -16 10 -5
0 -9 -4 -9 -10z"/>
<path d="M7370 2300 c0 -5 5 -10 11 -10 5 0 7 5 4 10 -3 6 -8 10 -11 10 -2 0
-4 -4 -4 -10z"/>
<path d="M7170 2141 c0 -5 5 -13 10 -16 6 -3 10 -2 10 4 0 5 -4 13 -10 16 -5
3 -10 2 -10 -4z"/>
<path d="M3520 1968 c14 -13 27 -23 29 -22 7 5 -24 39 -39 42 -9 2 -5 -6 10
-20z"/>
<path d="M6690 1820 c0 -5 5 -10 10 -10 6 0 10 5 10 10 0 6 -4 10 -10 10 -5 0
-10 -4 -10 -10z"/>
<path d="M6530 1738 c0 -4 7 -8 15 -8 8 0 15 4 15 8 0 5 -7 9 -15 9 -8 0 -15
-4 -15 -9z"/>
<path d="M2776 7482 c-3 -5 1 -9 9 -9 8 0 12 4 9 9 -3 4 -7 8 -9 8 -2 0 -6 -4
-9 -8z"/>
<path d="M3010 4859 c0 -5 5 -7 10 -4 6 3 10 8 10 11 0 2 -4 4 -10 4 -5 0 -10
-5 -10 -11z"/>
<path d="M2853 4718 c-13 -22 -12 -37 3 -31 8 3 14 14 14 24 0 22 -6 24 -17 7z"/>
<path d="M2805 4650 c-3 -5 1 -10 10 -10 9 0 13 5 10 10 -3 6 -8 10 -10 10 -2
0 -7 -4 -10 -10z"/>
<path d="M2790 4615 c0 -8 2 -15 4 -15 2 0 6 7 10 15 3 8 1 15 -4 15 -6 0 -10
-7 -10 -15z"/>
<path d="M4320 4100 c0 -5 5 -10 10 -10 6 0 10 5 10 10 0 6 -4 10 -10 10 -5 0
-10 -4 -10 -10z"/>
<path d="M4710 4060 c-13 -8 -13 -10 2 -10 9 0 20 5 23 10 8 13 -5 13 -25 0z"/>
<path d="M4000 3659 c-22 -18 -22 -19 -3 -10 12 6 25 16 28 21 9 15 3 12 -25
-11z"/>
<path d="M3861 3568 c-13 -16 -21 -31 -18 -34 8 -9 28 6 22 16 -7 11 22 33 35
25 5 -3 10 0 10 8 0 23 -23 15 -49 -15z"/>
<path d="M3816 3514 c-8 -20 -8 -24 2 -24 4 0 8 9 9 20 2 24 -3 26 -11 4z"/>
<path d="M4240 3380 c0 -5 7 -10 16 -10 8 0 12 5 9 10 -3 6 -10 10 -16 10 -5
0 -9 -4 -9 -10z"/>
<path d="M5295 3220 c-3 -5 1 -10 9 -10 9 0 16 5 16 10 0 6 -4 10 -9 10 -6 0
-13 -4 -16 -10z"/>
<path d="M5220 3180 c0 -5 5 -10 11 -10 5 0 7 5 4 10 -3 6 -8 10 -11 10 -2 0
-4 -4 -4 -10z"/>
<path d="M4810 2980 c0 -5 5 -10 10 -10 6 0 10 5 10 10 0 6 -4 10 -10 10 -5 0
-10 -4 -10 -10z"/>
<path d="M4006 2138 c3 -4 9 -8 15 -8 5 0 9 4 9 8 0 5 -7 9 -15 9 -8 0 -12 -4
-9 -9z"/>
</g>
</svg>
